<svg xmlns="http://www.w3.org/2000/svg" height="24px" viewBox="0 -960 960 960" width="24px" fill="#e8eaed"><path d="M232-146q-36.73 0-61.36-24.64Q146-195.27 146-232v-496q0-36.72 24.64-61.36Q195.27-814 232-814h496q36.72 0 61.36 24.64T814-728v496q0 36.73-24.64 61.36Q764.72-146 728-146H232Zm0-54h496q12 0 22-10t10-22v-496q0-12-10-22t-22-10H232q-12 0-22 10t-10 22v496q0 12 10 22t22 10Zm248-165h44v-228h-44v228Zm-172 0h52q24 0 42-16.8t18-41.2v-52h-44v44q0 9-6.5 15.5T354-409h-38q-9 0-15.5-6.5T294-431v-96q0-9 6.5-15.5T316-549h104v-12q0-13.4-10.5-22.7Q399-593 386-593h-78q-24.4 0-41.2 16.8Q250-559.4 250-535v112q0 24.4 16.8 41.2Q283.6-365 308-365Zm256 0h44v-86h46v-44h-46v-54h82v-44H564v228ZM200-200v-560 560Z"/></svg>